<?xml version="1.0" standalone="no"?><!DOCTYPE svg PUBLIC "-//W3C//DTD SVG 1.1//EN" "http://www.w3.org/Graphics/SVG/1.1/DTD/svg11.dtd"><svg t="1705543402336" class="icon" viewBox="0 0 1044 1024" version="1.1" xmlns="http://www.w3.org/2000/svg" p-id="1698" xmlns:xlink="http://www.w3.org/1999/xlink" width="203.90625" height="200"><path d="M590.412896 148.109596C581.54311 123.7652 275.74138 4.91006 271.84501 17.945479c-56.148916 14.635148-79.004456 79.352912-117.619705 120.343996l-85.783507-4.91006C30.666011 181.989013 10.835703 231.612301 24.330449 283.215451c48.43537 65.604742 104.647642 121.436881 139.699138 203.846701 2.755969 38.836994 168.114132 4.070598 203.561601-3.627109-48.419531 34.671362-90.582695 88.381087-72.462989 243.095506 16.535816 72.653055 27.860633 153.779924 174.560567 235.952161 19.323463 10.817972 59.269181 23.28319 83.977872 32.390559 23.631646 10.833811 51.270534 15.300382 129.213783-8.553008 45.1092-19.434336 93.813831-31.139286 137.956858-50.541944l-53.06033 2.486708c-73.064866 1.58389-129.467205 7.048313-146.858323-13.368036l-67.236149-116.083331 39.201288-76.137614c54.248248 5.559455 72.257082 49.559932 120.074735 66.317494l56.370661-41.767192c163.710917 96.648995 228.840492-61.233205 247.498722-184.206459-1.995702-50.035099-108.322268 15.680515-101.875834-7.697708 2.502547-53.78892-41.339541-124.145333-69.659502-178.97962l32.786533-126.822109c14.856892-13.257163-68.867557-154.334285-137.244108-171.931308-59.981931-15.442932-150.406237 60.520454-150.406237 60.520454z" fill="#FDEE21" p-id="1699"></path><path d="M859.357494 417.671912c0.586039 13.621458 0.522684 30.204791 1.837313 40.547595-0.221745 7.871936-6.129656 8.172875-11.023877 9.820121l31.852037 11.657434c6.335562 10.643744 11.404011 21.287488 16.551655 31.931231 5.955428 26.181709 1.488857 26.926138-2.45503 28.858484-11.5624 0.110872-23.093123 0.14255-33.847739-2.154091 4.815027 2.550064 5.876234 4.403215 6.383078 7.66603 0.950334 6.018784-2.930197 14.207497-9.297437 22.12695 9.424148 5.226838 26.60936 10.342805 39.359678 15.205348l14.555953-32.406399c-6.588984-47.580069-26.577682-91.437996-53.915631-133.252703z m59.459248 159.60864c17.676217 7.365091 42.083969 5.211 75.915869-12.227634 5.036772-3.579592 9.725087-1.44134 0.72859 4.434893-44.396449 39.834845-65.63642 19.909503-76.644459 7.792741z" fill="#C8C037" p-id="1700"></path><path d="M998.137976 559.82608c5.242677 10.057704 2.059058 18.21474 0.300939 26.720231-5.480261 43.176854-18.927491 77.293854-45.330945 112.978906-85.87854 138.051892-172.564865 51.666506-241.701682-4.545765L682.848743 766.602978c-1.520535 6.272206-7.840258 11.166428 36.809614 30.822508l45.489334-32.121298c173.483521 131.985591 296.409259-184.760821 232.990285-205.493947z m-265.808496 123.385066c-11.689112 0.823623-46.534701 12.671124-48.086914 19.529369l16.028972-23.885068z m-22.760505-146.398995c2.154091 0 12.449379 2.755969 11.340655 2.138252-1.58389-0.87114-0.174228 14.445081 3.056909 22.41205l-12.544413 27.337949c24.043457-27.749761 62.088506-25.912448 97.409263-29.476201l-16.852594-10.453677c2.930197-9.756765-0.522684-17.470312-2.138252-25.785736z m59.12663-82.298947c-25.817414 7.919452-50.526105 20.843998-67.109438 48.403692 12.655285-45.425978 15.237026-43.715376 19.323463-45.932823 17.692056-7.919452 32.184654-2.993553 47.785975-2.470869z" fill="#C8C037" p-id="1701"></path><path d="M630.849619 986.9063c-31.202642 34.433778-100.846305-2.613419-158.689984-21.493393-146.953356-93.449537-175.653451-181.418812-177.664992-267.725003-7.555157-123.62265 30.410697-195.452082 78.402578-212.463065-31.757004 61.264883-46.566379 171.218558-31.836198 252.994822 11.879178 45.489334 12.132601 122.212987 88.254375 163.283266 37.268942 20.986548 27.163721 37.316459 52.379258 56.97254 27.607211 21.54091 104.631803 42.004775 149.139124 28.430833z m46.629735-571.309285c-52.838585-74.933857-127.186403-103.047913-210.974208-106.12066 16.789239-5.480261 33.594316-8.331264 50.383555-16.424944 4.118115-4.324021 2.771808-11.926695 1.235435-19.65608-80.68338-21.065743-131.589619-47.104902-196.038121-71.227554L496.060542 243.919129c117.492994 4.466571 107.41945 33.467605 181.418812 171.677886z m56.576567-36.14438c-39.058738-55.752944-76.929559-123.385066-128.326804-166.419369-124.113656-56.022205-246.881004-97.631007-390.745774-135.48599l45.932823-59.047436c152.6712 34.84559 296.076642 93.164436 424.514318 189.322426 21.730977 54.960999 36.223575 109.969514 48.625437 171.646208z m78.719355-98.517986s-21.889366-49.100604-32.548948-67.853867c-24.72453-27.401305-37.237264-78.465933-87.874243-102.525229 16.013132 4.324021 26.989493-0.839462 59.680993 28.810968l51.508117 97.694363z m27.242916 85.102434c5.052611-42.559136 14.635148-110.793137 3.642948-137.78263L751.352005 105.328715c-5.115966-4.751671-8.790592-11.198105-12.797835-16.234877 43.351082 11.245622 88.618671 41.387057 149.64597 160.416425z" fill="#FCF6A0" p-id="1702"></path><path d="M657.696562 371.058016c-17.264406-13.605619-32.659821-61.676694-58.825691-71.655204-24.217685-2.02738-33.10331-9.661732-64.971186-3.167781 11.5624-5.7812 22.459567-13.193807 34.750556-17.153534 8.315425-1.964024 16.124005 0.205906 24.059296 1.29879 1.964024-0.934495 3.246975-2.074896 2.75597-3.817176-32.057943-19.81447-97.836913-20.115409-142.233363-31.408547 51.523956 1.726441 108.544013-1.140401 147.285973 11.293139 31.139286 27.638888 41.260346 79.701367 57.178445 114.626152zM752.128111 139.223971c7.159185 0.649395 45.631884 61.518305 47.437519 71.639365 3.199459 22.142788 11.087233 46.962352 13.209646 70.134669-6.335562-22.221983-13.241324-44.443966-21.857688-66.65011-2.534225-6.129656-8.917303-19.95702-26.656876-39.518067-8.252069-13.779847-10.026027-24.629496-12.132601-35.605857z m130.401701 331.508271h-16.472461l18.198901 4.783349z m-112.313672-16.424944c-16.551655-2.043219-33.562639-2.31248-50.098455 1.330468-6.747373 9.059853-7.206702 18.278096-10.168577 26.799426 20.131248-22.174466 28.114055-23.536612 60.267032-28.129894z m225.767745 114.451924c-9.218242 7.349252-10.136899 14.270853-37.379815 22.570439-19.846147 4.688316-31.075931-3.262814-40.420884-13.969914 14.17582 4.05476 16.440783 14.74602 54.454153 2.755969z m-82.552371 4.609121a1153.515737 1153.515737 0 0 1-20.986548 53.725564c-17.153534 20.115409-9.83596 8.663881-35.526663 39.914039 8.220391-12.671124 18.911652-24.86708 24.502785-38.060887 3.912209-8.711397 8.82227-17.92964 10.9922-25.659025-6.810729-3.389526-20.748965-3.658787-22.649633-2.439192-22.8397 13.463069-26.957815 27.718083-40.420885 41.592963 9.756765-15.585482 18.088029-32.628143 29.412846-46.661412 1.282951-1.821474 9.661732-2.16993 14.809376-3.246976-7.998647-1.393824-22.808022-4.244826-24.011779-4.118115-14.88857 3.579592-23.235673 16.551655-34.307068 25.183858 8.077841-11.657434 15.490449-23.774196 25.73822-33.784383 1.01369-1.172079 28.684256 1.251273 43.034304 6.969118l0.2851 5.702006 8.141197 3.294492 6.129656-15.363738z m-180.7219 109.921997c-3.674626-1.267112-36.14438-5.432744-36.14438-4.450732-12.465218 8.869787-14.365886 17.359439-14.096625 24.708691 20.748965-20.400509 19.95702-20.463865 50.241005-20.273798z m-24.677013-146.779128s23.441579-3.421203 22.966411-1.235434c-1.694763 8.141197 2.882681 27.939828 3.373687 25.183858l-13.16213 10.738777c27.575533-13.859041 56.624084-11.087233 86.068607-13.193807 0 0-24.787886-6.842407-23.283189-7.064152 5.543617-0.791945-1.473018-25.864931-3.373687-26.403454 4.735832-1.58389 9.344954-2.803486 14.096625-3.991404-35.463307-9.281598-55.95885-3.801337-86.686324 15.965616z" p-id="1703"></path><path d="M910.833934 553.997363l-5.226838 2.613419c-0.72859-15.252865-17.106017-14.144142-30.917542-14.286692l-11.340656-2.755969c3.452881 3.18362 14.096625 2.930197 9.804282 9.82012-3.627109 1.932346-5.290194 10.231932-7.349251 17.201051l-6.129656 0.300939 32.786532 12.892868 7.016635 1.077046 16.852594-9.059854z" p-id="1704"></path><path d="M755.517637 543.717914c-2.629258-5.226838-15.90226-4.48241-18.753263-1.108724-2.328319 2.74013-0.158389 20.337153 2.835164 17.375279 4.308182-3.801337 9.930993-5.385228 16.694205-5.06845 0.855301-3.246975 0.538523-6.763212-0.776106-11.198105z m127.233919 26.213387c1.251273-0.918656 3.880532-9.740926 3.04107-12.370185-1.742279-6.240528-14.096625-4.91006-14.096625-4.91006-2.993553 1.742279-5.63865 11.467367-4.545766 14.666825 0.538523 2.724292 13.621458 3.579592 15.601321 2.61342z" fill="#FFFFFF" p-id="1705"></path><path d="M355.189325 874.355045l7.792741 0.760268c46.202084 22.69715 122.276343 56.323144 232.404246 38.250954l17.280245 27.195399c-48.498726 23.56829-100.672077 18.135546-149.535097 19.798631z m-66.333332-179.328077l23.14064 97.155841c61.961794 38.74196 167.813193 83.106732 256.035891 79.5113l-19.481853-44.729066c-184.174782-39.122094-199.744425-88.539476-259.678839-131.938075z m57.590257-198.999996c11.293139 75.282313 26.419293 132.365725 91.897324 180.183378 40.119945 28.858484 79.95479 57.590257 128.405999 81.316936 0 0-4.244826 22.095272-7.80858 21.699299-144.165709-16.013132-249.732007-135.565184-262.529842-190.161888 12.386023-41.893902 30.157274-68.043934 50.050938-93.037725z m69.295207-42.670008c19.212591 83.455188 65.018703 167.971582 110.555554 244.647718 16.710044 21.176615 21.065743 30.521569 46.803962 43.414438 34.766395 11.008039 59.364214 8.204553 84.595589 6.541467-6.905762-12.797835-13.051257-26.16587-21.002387-38.203437-56.513211-44.697388-30.394858-85.387534-15.379576-111.157432-31.424387-7.935291-73.064866-24.819563-78.79855-47.009869-9.234081-71.797754-4.545766-94.574099 4.688316-131.447068-42.543297 8.980659-85.672634 17.866284-131.447069 33.230021z" p-id="1706"></path><path d="M259.633214 10.105221c-13.985753 9.139048-27.448821 22.206144-41.973096 37.063037-24.027618 24.86708-39.993234 49.132282-64.464342 67.125277-4.878383 4.213149-18.610713 11.008039-35.875118 12.021728-8.125358 0.395973-13.431391 1.742279-28.367478-0.126711-13.177969-7.127507-25.690703-2.502547-37.902499 12.100923-13.399713 19.260108-30.36318 55.847977-37.427331 78.877745-14.524275 58.714819 22.538761 107.102672 58.081263 144.403292 31.630292 30.885864 49.860871 50.209327 62.848773 78.529288 9.820121 18.373129 17.106017 43.572826 24.993791 61.249044 2.851003 5.606972 2.249124 5.575294 9.915154 7.270057 16.519977 3.532076 39.438872 3.547915 59.871059 5.306033 8.82227 0.126711 20.939032-0.205906 32.438077-1.409662 15.838905-2.977714 34.433778-5.907911 50.01926-11.293139 15.237026-3.75382 28.810967-8.948981 41.038602-13.73233-1.58389 5.35355-13.241324 10.517033-17.597023 17.296083-41.482091 59.395892-52.838585 112.202799-45.616045 195.547115 4.086437 36.952164 12.560251 67.568767 25.342247 102.620263 5.860395 16.028971 18.325613 41.418735 30.252307 58.287168 35.526663 50.161811 114.927091 114.578635 225.482645 139.38236 19.291786 2.629258 41.181152 1.219596 61.771728-4.260666 54.565026-16.535816 165.769974-55.65791 165.769974-55.65791s-98.723892 8.172875-143.928125 3.706304c-10.453677-1.647246-22.000238-2.201608-29.301974-9.344954-1.203757-1.568052-5.654489-10.517033-2.787647-10.596227 3.912209-0.110872 15.157832-4.76751 32.517271-6.335562-37.047198-3.959726-36.508675-3.928048-39.217127-10.675421a421.093115 421.093115 0 0 0-17.264406-37.316459c16.266555 1.377985 52.315902 3.389526 64.543536-9.234082 0 0-21.335004 2.470869-40.167462 0.253423-6.351401-0.744429-17.185211-4.593282-20.416348-5.797039-8.457975-3.294492-15.427093-4.324021-17.042661-6.446435-2.946036-7.491802-4.941738-9.994349-8.473814-20.020375-4.815027-13.257163-5.195161-28.0507-6.113817-41.608802 12.322668 15.205348 28.034861 28.003183 48.831342 34.528812 0.269261-0.570201 26.973654 11.609917 46.376313 5.35355l4.03892-1.298791c0 0.348456-12.845352 1.124562-17.581184-1.203756-39.438872-16.789239-45.378461-31.456064-51.745701-38.741961l-17.042661-25.516475c5.179322-10.342805 8.109519-10.722938 14.983604-10.817972 20.748965 2.296641 29.808818 4.070598 42.448264 1.029529 8.53717 17.581184 10.833811 35.241563 30.283985 48.039398 64.749442 19.212591 78.830228-5.702006 94.510743-27.749761 46.598057 34.212034 122.434732 44.744905 175.130767 0.601878 66.982727-77.49976 88.175181-199.66523 82.235592-206.634348-8.362942-14.191658-19.323463-28.826806-28.76345-26.799426-33.578478 9.154887-45.964501 26.197548-79.242039 22.317016 3.959726-0.221745 10.627905-0.332617 10.675421-0.712751 2.565903-28.177411-0.205906-41.814708-1.425501-44.158865-10.12106-22.2695-23.378223-45.711078-32.628143-63.276424-2.375836-3.642948-9.376631-31.313514-21.097421-42.242358-5.036772-4.292343-17.3436-15.61716-17.343601-15.61716l-1.045367 12.037567s4.815027 0.712751 6.65234 8.172875c6.93744 28.272445 42.289875 95.112622 44.887455 98.31208 12.528573 20.226281 1.267112 45.425978 10.802133 59.554281 0.918656 1.805635 19.434336-0.158389 33.784383 0.72859 23.599968-5.068449 22.602117-15.47461 43.002626-17.042661 13.73233-1.045368 15.110315 24.740369 14.936087 26.751909-2.565903 28.47835-11.229783 61.5975-24.486947 91.833969-27.559694 53.123686-58.445558 100.830466-102.240128 107.482806-53.408786 9.344954-81.158547-14.01743-110.112064-28.890162l-11.087233 9.455826c-37.617398 37.459009-82.314787 34.132839-100.577044-14.825215-9.10737-18.990846-20.954871-30.632441-31.107608-46.930674l-53.836437 38.773638c-4.466571 9.186565-9.97851 23.679162-16.678366 39.866523-4.656638 11.245622-8.553008 30.584925-8.299586 46.645574-6.905762 11.768306 23.900907 59.42757 43.351081 88.428604l16.836756 24.439429c3.864693 10.010188 12.306829 18.848296 12.829513 19.925342 36.112702 47.120741-45.584367 36.271091-62.452801 33.435927-33.293377-5.306033-65.858165-19.212591-96.474767-37.807465l-5.306033-3.278653c-36.381964-22.903056-69.849569-52.220868-98.31208-81.206063-16.963467-19.212591-33.134988-58.603947-45.061684-86.527935-17.897962-67.125277-43.556987-183.493709 25.975804-271.66889 4.403215-5.036772 9.170726-13.431391 13.209646-15.110315a192.379334 192.379334 0 0 1 67.220311-28.77929l-2.439192-15.632999c-12.037567 2.74013-52.601002 17.581184-64.084207 23.774196-26.070837 7.570996-47.70678 15.458771-80.952641 23.790035a123.971106 123.971106 0 0 1-31.80452-0.063356c-23.916746-3.246975-64.670247-0.348456-67.267828-2.755969-16.203199-22.586278-20.638093-63.03884-35.399951-84.706462l-0.174228-0.205905-0.190067-0.205906c-8.616364-11.578239-18.65823-21.018226-28.541706-30.838347-35.399952-35.162368-65.731454-69.184335-74.189429-105.233682-2.138252-10.643744-7.618513-21.68346-4.704154-53.155363l0.047516-0.158389 0.063356-0.158389c8.505492-29.412846 22.364533-53.377108 45.885306-77.420565 24.471107 0.395973 48.704631 0.918656 67.568767 4.545765 8.648042 1.44134 26.672715 3.801337 45.267589 10.722938 47.057385 17.533667 109.256763 46.344635 109.256763 46.344635-46.69309-25.627347-98.882281-58.920725-131.843041-65.652259-4.91006-0.696912-7.919452-2.930197-9.376631-6.842407 49.575771-29.127745 58.651463-63.403135 91.247929-94.178126 14.904409-6.493951 20.717287-9.788443 33.372571-11.166428 117.11286 18.515679 190.827121 65.161253 249.161807 96.348056 23.679162 12.86119 45.204233 22.602117 65.731454 34.322906 18.024673 5.92375 72.383794 46.962352 88.286053 69.089302 16.155683 34.132839 27.971505 70.98997 38.726122 106.532472 7.713546 36.176058 14.492598 50.842883 14.492598 50.842883s-6.557306-30.252308-5.464423-35.685052c6.810729 2.534225 22.871378 7.555157 29.539557 6.779051 0 0-29.77714-15.379576-33.673511-28.985195-12.512735-43.636182-25.072986-111.569243-28.446672-115.101319-9.550859-11.990051-49.322349-42.448264-73.730101-56.544889-9.234081-5.321872-14.223336-8.616364-14.603469-10.960522 7.792741-7.871936 17.406956-18.293935 26.054997-24.914597 8.267908-6.335562 15.791388-13.494747 27.33795-17.787089 50.684494-22.823861 79.66969 8.790592 86.543774 2.375835 0 0-10.897166-12.481057-6.050462-10.437838 4.957577 2.692614 21.11326 5.860395 22.903056 7.507641 18.468163 14.445081 66.760982 67.267827 95.872889 122.989093 6.984957 13.653136 9.83596 22.649633 6.588984 39.074578a285.84471 285.84471 0 0 1-9.313275 36.492836c-3.199459 7.349252-21.319165 57.637773-21.25581 64.400985-3.642948 27.591372 11.831662 62.136022 11.831661 62.136023 0.158389-9.376631-0.570201-14.381725 0.269262-21.081582l1.045367-11.990051s-0.649395-3.18362-0.538522-4.434893c0.791945-8.299586 2.819325-15.268704 3.421203-20.004536 5.812878-36.049347 15.933938-61.977633 27.401305-93.607926 3.421203-7.982808 7.871936-12.417701 7.650191-18.499841 0.190067-10.770455-9.455826-25.247214-16.440783-39.375516a429.139279 429.139279 0 0 0-26.450971-46.99403c-25.183858-36.176058-46.613896-64.48018-85.894379-82.203914-10.976361-4.830866-54.21657-9.550859-69.152657-6.747373-18.103868 3.769659-33.68935 7.491802-46.107051 15.442931-19.545208 12.512735-34.908946 31.899554-52.933619 43.319404-39.850684-19.925342-59.079114-34.84559-62.658706-36.904647a1465.288733 1465.288733 0 0 0-82.710759-41.387058c-14.666826-13.684813-105.724688-46.392151-189.11652-52.901941z m509.711786 743.208916c-24.550302-19.196752-45.235911-38.963705-58.857369-59.300859-4.434893 23.916746-20.590576 40.975246-33.071633 57.748646-2.486708 3.912209-4.276504 9.281598 7.951131 26.371776 3.294492 4.561604 15.221187 5.337711 23.283189 4.910061-8.188714-6.177173-20.653931-12.734479-22.665472-18.420646 14.413403 9.804282 27.749761 12.639446 39.819006 11.055555 2.771808-0.316778 6.177173-3.231137 8.82227-7.729385 5.385228-11.5624 9.598376-14.334209 13.843202-17.454473l9.804282 12.29099z" p-id="1707"></path></svg>