<svg version="1.1" xmlns="http://www.w3.org/2000/svg" xmlns:xlink="http://www.w3.org/1999/xlink" width="499.99158" height="499.99158"><g data-paper-data="{&quot;description&quot;:&quot;Logo for leetungkwan\n====================\n\nThis logo was generated by MarkMaker at http://emblemmatic.org/markmaker/ and may be composed of elements designed by others.\n\nThe font is Palanquin Dark Bold designed by Pria Ravichandran and released under the OFL license via Google Fonts: https://www.google.com/fonts/specimen/Palanquin%20Dark. The font includes this copyright statement: Copyright 2014 Pria Ravichandran (pria.ravichandran@gmail.com)\n\nMarkMaker uses semantic data from the Princeton University WordNet database http://wordnet.princeton.edu and font descriptions from Google Fonts https://www.google.com/fonts.&quot;}" fill="none" fill-rule="nonzero" stroke="none" stroke-width="none" stroke-linecap="butt" stroke-linejoin="miter" stroke-miterlimit="10" stroke-dasharray="" stroke-dashoffset="0" font-family="none" font-weight="none" font-size="none" text-anchor="none" style="mix-blend-mode: normal"><path d="M92.76246,207.23249c0,-86.83757 70.39576,-157.23333 157.23333,-157.23333c86.83757,0 157.23333,70.39576 157.23333,157.23333c0,86.83757 -70.39576,157.23333 -157.23333,157.23333c-86.83757,0 -157.23333,-70.39576 -157.23333,-157.23333z" fill="none" stroke="#3f5656" stroke-width="3.49994"></path><g data-paper-data="{&quot;elementType&quot;:&quot;logo&quot;}" fill="#3f5656" stroke="none" stroke-width="1"><g data-paper-data="{&quot;elementType&quot;:&quot;text&quot;}"><g data-paper-data="{&quot;baseline&quot;:70.60000000000001,&quot;elementType&quot;:&quot;row&quot;}"><g data-paper-data="{&quot;baselineProportion&quot;:0.7632432432432432,&quot;fontSize&quot;:100,&quot;baseline&quot;:70.60000000000001,&quot;elementType&quot;:&quot;word&quot;}"><path d="M53.45413,438.06516v-44.24177l11.58561,-0.70023v44.942z" data-paper-data="{&quot;elementType&quot;:&quot;letter&quot;,&quot;baseline&quot;:70.60000000000001,&quot;baselineProportion&quot;:1,&quot;fontSize&quot;:100}"></path><path d="M70.76889,422.66011c0,-5.17745 1.60204,-9.2303 4.80612,-12.15853c3.20408,-2.92823 7.14022,-4.39235 11.80841,-4.39235c4.92282,0 8.61494,1.59143 11.07636,4.77429c2.46141,3.18286 3.69212,6.93864 3.69212,11.26733v4.0104h-18.77888c0.50926,1.18827 1.28375,2.03703 2.32349,2.54629c1.03973,0.50926 2.28105,0.76389 3.72395,0.76389c1.35802,0 2.74787,-0.12731 4.16955,-0.38194c1.42168,-0.25463 2.72665,-0.67901 3.91492,-1.27314l3.24652,7.82984c-1.7824,1.31558 -3.98919,2.16435 -6.62035,2.54629c-2.63117,0.38194 -4.58332,0.57291 -5.85646,0.57291c-5.0077,0 -9.17725,-1.28375 -12.50864,-3.85126c-3.33139,-2.56751 -4.99709,-6.65218 -4.99709,-12.25401M91.07554,419.15896c-0.04244,-0.67901 -0.36072,-1.47473 -0.95486,-2.38715c-0.59413,-0.91242 -1.61265,-1.36863 -3.05555,-1.36863c-1.06095,0 -1.92033,0.3289 -2.57812,0.98669c-0.65779,0.65779 -1.13522,1.58082 -1.43229,2.76909z" data-paper-data="{&quot;elementType&quot;:&quot;letter&quot;,&quot;baseline&quot;:50.2,&quot;baselineProportion&quot;:0.9785575048732944,&quot;fontSize&quot;:100}"></path><path d="M105.97133,422.66011c0,-5.17745 1.60204,-9.2303 4.80612,-12.15853c3.20408,-2.92823 7.14022,-4.39235 11.80841,-4.39235c4.92282,0 8.61494,1.59143 11.07636,4.77429c2.46141,3.18286 3.69212,6.93864 3.69212,11.26733v4.0104h-18.77888c0.50926,1.18827 1.28375,2.03703 2.32349,2.54629c1.03973,0.50926 2.28105,0.76389 3.72395,0.76389c1.35802,0 2.74787,-0.12731 4.16955,-0.38194c1.42168,-0.25463 2.72665,-0.67901 3.91492,-1.27314l3.24652,7.82984c-1.7824,1.31558 -3.98919,2.16435 -6.62035,2.54629c-2.63117,0.38194 -4.58332,0.57291 -5.85646,0.57291c-5.0077,0 -9.17725,-1.28375 -12.50864,-3.85126c-3.33139,-2.56751 -4.99709,-6.65218 -4.99709,-12.25401M126.27798,419.15896c-0.04244,-0.67901 -0.36072,-1.47473 -0.95486,-2.38715c-0.59413,-0.91242 -1.61265,-1.36863 -3.05555,-1.36863c-1.06095,0 -1.92033,0.3289 -2.57812,0.98669c-0.65779,0.65779 -1.13522,1.58082 -1.43229,2.76909z" data-paper-data="{&quot;elementType&quot;:&quot;letter&quot;,&quot;baseline&quot;:50.2,&quot;baselineProportion&quot;:0.9785575048732944,&quot;fontSize&quot;:100}"></path><path d="M168.29175,436.02812c-0.76389,0.67901 -2.0052,1.30497 -3.72395,1.87789c-1.71874,0.57291 -3.32078,0.85937 -4.80612,0.85937c-3.94675,0 -7.44789,-1.01852 -10.50344,-3.05555c-3.05555,-2.03703 -4.58332,-5.1138 -4.58332,-9.2303v-8.91201h-4.77429v-9.10298h4.77429v-8.3391l11.58561,-1.59143v9.93053h7.44789l1.08217,9.10298h-8.53007v7.63887c0,1.27314 0.37133,2.28105 1.114,3.02372c0.74267,0.74267 1.79301,1.114 3.15103,1.114c0.5517,0 1.25193,-0.09549 2.10069,-0.28646c0.84876,-0.19097 1.63387,-0.49865 2.35532,-0.92303z" data-paper-data="{&quot;elementType&quot;:&quot;letter&quot;,&quot;baseline&quot;:62.1,&quot;baselineProportion&quot;:0.9825949367088609,&quot;fontSize&quot;:100}"></path><path d="M195.98264,435.45521c-1.31558,0.72145 -3.0025,1.52777 -5.06075,2.41897c-2.05825,0.8912 -4.38174,1.3368 -6.97047,1.3368c-4.37113,0 -7.43729,-1.2201 -9.19847,-3.66029c-1.76118,-2.44019 -2.64177,-5.50635 -2.64177,-9.19847v-19.09717h11.58561v18.84254c0,1.18827 0.30768,2.10069 0.92303,2.73726c0.61535,0.63657 1.45351,0.95486 2.51446,0.95486c0.67901,0 1.52777,-0.19097 2.54629,-0.57291c1.01852,-0.38194 1.99459,-0.78511 2.92823,-1.20949v-20.75225h11.58561v30.81009h-5.79281z" data-paper-data="{&quot;elementType&quot;:&quot;letter&quot;,&quot;baseline&quot;:48.400000000000006,&quot;baselineProportion&quot;:0.9641434262948207,&quot;fontSize&quot;:100}"></path><path d="M220.04507,409.92866c1.31558,-0.76389 3.05555,-1.59143 5.21989,-2.48263c2.16435,-0.8912 4.54088,-1.3368 7.12961,-1.3368c4.37113,0 7.49033,1.2201 9.35761,3.66029c1.86728,2.44019 2.80092,5.50635 2.80092,9.19847v19.09717h-11.58561v-18.84254c0,-1.18827 -0.36072,-2.10069 -1.08217,-2.73726c-0.72145,-0.63657 -1.61265,-0.95486 -2.6736,-0.95486c-0.72145,0 -1.63387,0.19097 -2.73726,0.57291c-1.10339,0.38194 -2.12191,0.78511 -3.05555,1.20949v20.75225h-11.58561v-30.81009h5.79281z" data-paper-data="{&quot;elementType&quot;:&quot;letter&quot;,&quot;baseline&quot;:50.2,&quot;baselineProportion&quot;:1,&quot;fontSize&quot;:100}"></path><path d="M282.81108,407.25506v31.12838c0,4.45601 -1.47473,7.84045 -4.42418,10.15333c-2.94945,2.31288 -7.14022,3.46932 -12.5723,3.46932c-1.31558,0 -3.28896,-0.26524 -5.92012,-0.79572c-2.63117,-0.53048 -4.94404,-1.45351 -6.93864,-2.76909l3.50115,-8.14812c2.07947,1.01852 3.80882,1.6657 5.18806,1.94155c1.37924,0.27585 2.70543,0.41377 3.97858,0.41377c1.31558,0 2.57812,-0.25463 3.7876,-0.76389c1.20949,-0.50926 1.81423,-1.25193 1.81423,-2.228v-2.228c-0.8912,0.38194 -1.8885,0.70023 -2.99189,0.95486c-1.10339,0.25463 -2.35532,0.38194 -3.75578,0.38194c-4.96526,0 -8.6786,-1.52777 -11.14001,-4.58332c-2.46141,-3.05555 -3.69212,-6.87498 -3.69212,-11.4583c0,-4.62576 1.2201,-8.55129 3.66029,-11.77659c2.44019,-3.2253 6.37633,-4.83795 11.80841,-4.83795c1.73996,0 3.49054,0.37133 5.25172,1.114c1.76118,0.74267 3.32078,1.60204 4.67881,2.57812l1.97337,-2.54629zM271.22547,428.45292v-10.94904c-0.59413,-0.5517 -1.34741,-1.01852 -2.25983,-1.40046c-0.91242,-0.38194 -1.75057,-0.57291 -2.51446,-0.57291c-1.73996,0 -2.98128,0.7745 -3.72395,2.32349c-0.74267,1.54899 -1.114,3.08738 -1.114,4.61515c0,1.82484 0.49865,3.42688 1.49594,4.80612c0.9973,1.37924 2.42958,2.06886 4.29686,2.06886c0.46682,0 1.08217,-0.08488 1.84606,-0.25463c0.76389,-0.16975 1.42168,-0.38194 1.97337,-0.63657" data-paper-data="{&quot;elementType&quot;:&quot;letter&quot;,&quot;baseline&quot;:50.2,&quot;baselineProportion&quot;:0.69625520110957,&quot;fontSize&quot;:100}"></path><path d="M302.03556,428.13463v9.93053h-11.58561v-44.24177l11.58561,-0.70023v22.9166l11.52196,-9.73955l6.93864,7.95715l-8.53007,6.42938l10.75807,17.37842h-12.47681l-6.30206,-11.33098z" data-paper-data="{&quot;elementType&quot;:&quot;letter&quot;,&quot;baseline&quot;:70.60000000000001,&quot;baselineProportion&quot;:1,&quot;fontSize&quot;:100}"></path><path d="M355.38031,438.06516l-5.47452,-15.97796l-5.41086,15.97796h-10.5671l-10.5671,-29.72792l11.33098,-1.14583l4.96526,17.50574l4.90161,-17.50574h10.88538l5.21989,17.50574l4.64698,-17.50574h11.52196l-10.88538,30.87375z" data-paper-data="{&quot;elementType&quot;:&quot;letter&quot;,&quot;baseline&quot;:48.5,&quot;baselineProportion&quot;:1,&quot;fontSize&quot;:100}"></path><path d="M380.3976,409.03746c1.61265,-0.72145 3.64968,-1.38985 6.11109,-2.0052c2.46141,-0.61535 4.96526,-0.92303 7.51155,-0.92303c4.20138,0 7.38424,1.16705 9.54858,3.50115c2.16435,2.3341 3.24652,5.4533 3.24652,9.35761v19.09717h-5.15623l-2.10069,-2.35532c-0.93364,0.93364 -2.16435,1.67631 -3.69212,2.228c-1.52777,0.5517 -3.16164,0.82754 -4.90161,0.82754c-3.90431,0 -6.81132,-0.97608 -8.72104,-2.92823c-1.90972,-1.95215 -2.86457,-4.51966 -2.86457,-7.70252c0,-3.35261 1.12461,-5.80342 3.37383,-7.35241c2.24922,-1.54899 5.15623,-2.32349 8.72104,-2.32349h3.69212c-0.16975,-0.93364 -0.61535,-1.65509 -1.3368,-2.16435c-0.72145,-0.50926 -1.61265,-0.76389 -2.6736,-0.76389c-1.06095,0 -2.31288,0.18036 -3.75578,0.54109c-1.4429,0.36072 -2.75848,0.79572 -3.94675,1.30497zM389.05498,427.68903c0,0.50926 0.21219,0.93364 0.63657,1.27314c0.42438,0.33951 0.91242,0.50926 1.46412,0.50926c0.67901,0 1.35802,-0.14853 2.03703,-0.4456c0.67901,-0.29707 1.35802,-0.72145 2.03703,-1.27314v-2.29166h-3.5648c-0.76389,0 -1.38985,0.20158 -1.87789,0.60474c-0.48804,0.40316 -0.73206,0.94425 -0.73206,1.62326" data-paper-data="{&quot;elementType&quot;:&quot;letter&quot;,&quot;baseline&quot;:50.2,&quot;baselineProportion&quot;:0.9785575048732944,&quot;fontSize&quot;:100}"></path><path d="M422.02942,409.92866c1.31558,-0.76389 3.05555,-1.59143 5.21989,-2.48263c2.16435,-0.8912 4.54088,-1.3368 7.12961,-1.3368c4.37113,0 7.49033,1.2201 9.35761,3.66029c1.86728,2.44019 2.80092,5.50635 2.80092,9.19847v19.09717h-11.58561v-18.84254c0,-1.18827 -0.36072,-2.10069 -1.08217,-2.73726c-0.72145,-0.63657 -1.61265,-0.95486 -2.6736,-0.95486c-0.72145,0 -1.63387,0.19097 -2.73726,0.57291c-1.10339,0.38194 -2.12191,0.78511 -3.05555,1.20949v20.75225h-11.58561v-30.81009h5.79281z" data-paper-data="{&quot;elementType&quot;:&quot;letter&quot;,&quot;baseline&quot;:50.2,&quot;baselineProportion&quot;:1,&quot;fontSize&quot;:100}"></path></g></g></g></g><g data-paper-data="{&quot;elementType&quot;:&quot;emblem&quot;}" fill="#3f5656" stroke="none" stroke-width="1"><g data-paper-data="{&quot;baselineProportion&quot;:1,&quot;fontSize&quot;:100,&quot;baseline&quot;:68,&quot;elementType&quot;:&quot;word&quot;}"><path d="M288.90592,300.07069h-133.25013v-185.67641h49.69574v146.62975h78.91247z" data-paper-data="{&quot;elementType&quot;:&quot;letter&quot;,&quot;baseline&quot;:68,&quot;baselineProportion&quot;:1,&quot;fontSize&quot;:100}"></path><path d="M319.48791,250.10189c6.91736,0 12.78801,2.41197 17.61195,7.23592c4.82395,4.82395 7.23592,10.78561 7.23592,17.88501c0,7.09939 -2.41197,13.01555 -7.23592,17.74848c-4.82395,4.73293 -10.6946,7.09939 -17.61195,7.09939c-7.09939,0 -13.06106,-2.36646 -17.88501,-7.09939c-4.82395,-4.73293 -7.23592,-10.64909 -7.23592,-17.74848c0,-7.09939 2.41197,-13.06106 7.23592,-17.88501c4.82395,-4.82395 10.78561,-7.23592 17.88501,-7.23592z" data-paper-data="{&quot;elementType&quot;:&quot;letter&quot;,&quot;baseline&quot;:18.299999999999997,&quot;baselineProportion&quot;:1,&quot;fontSize&quot;:100}"></path></g></g></g></svg>